<?xml version="1.0" encoding="utf-8"?>
<!-- Generator: Adobe Illustrator 19.1.0, SVG Export Plug-In . SVG Version: 6.00 Build 0)  -->
<svg version="1.1" id="Layer_1" xmlns="http://www.w3.org/2000/svg" xmlns:xlink="http://www.w3.org/1999/xlink" x="0px" y="0px"
	 viewBox="0 0 221.3 290" style="enable-background:new 0 0 221.3 290;" xml:space="preserve">
<style type="text/css">
	.st0{fill:#3D848E;stroke:#000000;stroke-width:2;stroke-miterlimit:10;}
	.st1{fill:#68B9C7;stroke:#000000;stroke-width:2;stroke-miterlimit:10;}
	.st2{fill:#BCE1EB;stroke:#000000;stroke-width:3;stroke-miterlimit:10;}
	.st3{fill:#3C868F;stroke:#000000;stroke-width:2;stroke-miterlimit:10;}
	.st4{fill:#68B9C7;stroke:#000000;stroke-width:3;stroke-miterlimit:10;}
	.st5{opacity:0.5;fill:#FFFFFF;}
	.st6{fill:#D9BF27;stroke:#000000;stroke-width:3;stroke-miterlimit:10;}
	.st7{fill:#F4DD38;stroke:#000000;stroke-width:2;stroke-miterlimit:10;}
	.st8{fill:#0A3033;}
	.st9{fill:#FFFFFF;}
	.st10{fill:none;stroke:#000000;stroke-width:3;stroke-miterlimit:10;}
	.st11{fill:none;stroke:#000000;stroke-width:2;stroke-miterlimit:10;}
</style>
<g id="Layer_2">
	<path class="st0" d="M190.6,206.1c-6.3,76.1-24.7,73.3-75.9,74.1c-81.1,1.2-84.2-32.2-87-74.1c-5.7-85.6,35.2-78.8,78.6-77.9
		C171.2,129.4,197.6,122.8,190.6,206.1z"/>
	<path class="st1" d="M112.1,36.1c-9.7-0.4-15.8-7.3-16.3-15.6C95.1,9.9,98.6,5.4,113.2,6.2c9.4,0.5,17.3,0.9,16,15.4
		C128.5,29.8,121.8,36.4,112.1,36.1z"/>
	<path class="st1" d="M46,62.2c0,10.7-7,19.3-15.7,19.3c-14.3,0-16.9-7.5-15.7-19.3c1.1-10.3,1.3-19.9,15.7-19.3
		C39,43.1,46,51.5,46,62.2z"/>
	<rect x="93" y="103.8" class="st2" width="31.6" height="23.3"/>
	<path class="st1" d="M173.4,70.4c0-9.7,6.7-16,15-16.9c10.6-1.1,15.2,2.2,14.9,16.9c-0.2,9.4-0.2,17.3-14.8,16.5
		C180.2,86.5,173.4,80.1,173.4,70.4z"/>
	<path class="st3" d="M155.7,69.1c0-13.1,8.9-21.5,19.7-22.7c13.9-1.5,20,3,19.7,22.7c-0.2,12.7-0.3,23.2-19.5,22.2
		C164.8,90.7,155.7,82.2,155.7,69.1z"/>
	<path class="st3" d="M63.5,63.2c0,13.1-8.8,23.7-19.7,23.7c-17.9,0-21.3-9.1-19.7-23.7c1.4-12.6,1.7-24.3,19.7-23.7
		C54.7,39.9,63.5,50.1,63.5,63.2z"/>
	<path class="st4" d="M174.8,198.8c-5.2,76.1-20.3,73.3-62.4,74.1c-66.7,1.2-69.3-32.2-71.6-74.1c-4.7-85.6,29-78.8,64.7-77.9
		C158.8,122.1,180.5,115.5,174.8,198.8z"/>
	<path class="st5" d="M80,237.9c42.1-0.8,57.2,2,62.4-74.1c1.2-17.6,1.2-31.2-0.1-41.7c-9.9-1.2-22.2-0.9-36.8-1.3
		c-35.7-0.8-69.3-7.7-64.7,77.9c0.7,12.8,1.4,24.8,4,35.3C53.9,236.8,65.4,238.2,80,237.9z"/>
	<path class="st6" d="M129.9,160.4c-1.7,24.9-6.6,24-20.4,24.2c-21.8,0.4-22.7-10.5-23.4-24.2c-1.5-28,9.5-25.8,21.2-25.5
		C124.7,135.3,131.8,133.1,129.9,160.4z"/>
	<path class="st7" d="M122.9,160.1c-1.2,16.9-4.5,16.3-13.9,16.5c-14.8,0.3-15.4-7.2-15.9-16.5c-1-19,6.4-17.5,14.4-17.3
		C119.3,143.1,124.2,141.6,122.9,160.1z"/>
	<path class="st4" d="M180.7,66.2c0,38.3-30.4,46-71.2,46c-40.8,0-78-13.4-73.8-47.2c5.5-44.5,33.1-51.1,73.9-51.1
		C156,13.9,180.7,32,180.7,66.2z"/>
	<path class="st5" d="M163.8,44.2c0-6.6-0.9-12.7-2.8-18.1c-12-8.1-29.2-12.2-51.4-12.2c-40.8,0-68.4,6.6-73.9,51.1
		c-0.6,4.7-0.4,8.9,0.5,12.8c14,8.6,34.6,12.4,56.3,12.4C133.4,90.2,163.8,82.5,163.8,44.2z"/>
	<circle class="st8" cx="72.7" cy="62.6" r="16.5"/>
	<circle class="st9" cx="78.4" cy="64.3" r="5.7"/>
	<path class="st10" d="M174.8,198.8c-5.2,76.1-20.3,73.3-62.4,74.1c-66.7,1.2-69.3-32.2-71.6-74.1c-4.7-85.6,29-78.8,64.7-77.9
		C158.8,122.1,180.5,115.5,174.8,198.8z"/>
	<circle class="st8" cx="145.7" cy="65" r="16.5"/>
	<circle class="st9" cx="151.4" cy="66.7" r="5.7"/>
	<path class="st10" d="M180.7,66.2c0,38.3-30.4,46-71.2,46c-40.8,0-78-13.4-73.8-47.2c5.5-44.5,33.1-51.1,73.9-51.1
		C156,13.9,180.7,32,180.7,66.2z"/>
	<path class="st11" d="M27.3,81.4c-11.6-1-13.8-8.2-12.6-19.2c1.1-10.3,1.3-19.9,15.7-19.3"/>
	<g>
		<path d="M110.1,6.1c1,0,2,0,3.1,0.1c7.8,0.4,14.4,0.7,15.8,9c25.2,3.4,41.5,14,48.2,31.1c0.9-0.1,1.8-0.1,2.6-0.1
			c6.4,0,10.7,1.9,13,7.2c7.3,0.4,10.6,4.7,10.3,17.1c-0.2,8.8-0.2,16.2-11.9,16.6c-2.4,2.8-6.5,4.4-13.3,4.4c-0.8,0-1.6,0-2.4-0.1
			c-0.4,0-0.9-0.1-1.3-0.1c-9.1,13.9-27.1,19.2-49.7,20.6v9.4c19,0.4,32.5,1.6,40.8,10.8c21.4,6.2,29.4,23.7,25.2,74.1
			c-6.3,76.1-24.7,73.3-75.9,74.1c-1.5,0-2.9,0-4.3,0c-76.9,0-80-33-82.7-74.2c-3.1-46.3,7.5-65.6,24.7-73.4
			c8.6-10.5,21.2-12.4,35.1-12.4c1.8,0,3.7,0,5.5,0.1v-9.1c-23.9-2.3-44.5-10-53.2-24.6c-6-0.5-10-2.4-12.5-5.4l0,0
			c-11.6-1-13.8-8.2-12.6-19.2c1.1-10,1.3-19.4,14.6-19.4c0.3,0,0.7,0,1.1,0l0,0.3c2.6-2.3,6.4-3.7,12.2-3.7c0.2,0,0.5,0,0.7,0
			c10-18.5,28.4-24,52.9-25.3C97.1,8.7,101,6.1,110.1,6.1 M110.1,2.1L110.1,2.1c-6,0-14,0.9-17.1,8.3c-19.6,1.3-40.5,5.7-52.2,25.2
			c-4.7,0.2-8.4,1.3-11.4,3.3c-0.1,0-0.1,0-0.2,0c-7.2,0-12.1,2.4-15,7.4c-2.3,4-2.8,8.9-3.4,14c-0.1,0.5-0.1,1-0.2,1.5
			c-1.2,10.8,1.4,15.3,3.4,17.8c2.6,3.1,6.3,5,11.3,5.6c2.9,2.8,6.9,4.6,12.1,5.3c4.7,6.9,11.9,12.6,21.7,16.8
			c8.4,3.7,18.4,6.2,29.9,7.6v1.4c-0.5,0-1,0-1.5,0c-13.7,0-27.7,1.6-37.6,13.1c-9.9,4.7-16.8,12.6-21.2,24.1
			c-4.9,12.8-6.5,30.1-5,52.8c1.3,19.7,2.7,40.1,14.4,54.8c12.6,15.8,35.6,23.1,72.3,23.1c1.5,0,2.9,0,4.4,0c2,0,3.9-0.1,5.7-0.1
			c23.7-0.3,40.9-0.5,52.9-10.8c11.9-10.1,18.1-29.5,21.2-67c2.1-25.8,1.1-43.4-3.2-55.4c-4.2-11.7-11.8-18.9-23.8-22.6
			c-8.9-9.2-22.4-10.8-39-11.2v-1.8c23.7-2,39-8.4,47.7-20.1c0.6,0,1.2,0,1.8,0c6.7,0,11.6-1.5,15-4.5c5.9-0.5,9.9-2.9,12.1-7.2
			c1.9-3.8,2-8.3,2.1-13l0-0.2c0.2-8.9-1.1-19-11.8-20.9c-3.1-5-8.2-7.4-15.6-7.4c0,0,0,0,0,0c-3.8-8.1-9.7-14.8-17.6-20
			c-8-5.1-18.1-8.7-30-10.6c-3-8.5-11.6-9-18.6-9.4l-0.2,0C112.3,2.1,111.1,2.1,110.1,2.1L110.1,2.1z"/>
	</g>
	<path class="st11" d="M39.8,86.7c-14.5-1.3-17.2-10.1-15.7-23.5c1.4-12.6,1.7-24.3,19.7-23.7"/>
</g>
</svg>
